<svg width="30" height="30" viewBox="0 0 30 30" fill="none" xmlns="http://www.w3.org/2000/svg">
<path d="M25.875 11.25H24V8.74998C24 3.92519 20.0748 0 15.25 0C10.4252 0 6.50002 3.92519 6.50002 8.74998V11.25H4.62502C4.27955 11.25 4 11.5296 4 11.875V27.5C4 28.8788 5.12119 30 6.50002 30H24C25.3788 30 26.5 28.8788 26.5 27.5V11.875C26.5 11.5296 26.2204 11.25 25.875 11.25ZM17.1214 24.306C17.1409 24.4824 17.0842 24.6594 16.9657 24.7919C16.8473 24.9243 16.6776 25 16.5 25H14C13.8224 25 13.6527 24.9243 13.5343 24.7919C13.4159 24.6595 13.3591 24.4825 13.3787 24.306L13.773 20.7605C13.1327 20.2948 12.75 19.5581 12.75 18.75C12.75 17.3712 13.8712 16.25 15.2501 16.25C16.6289 16.25 17.7501 17.3712 17.7501 18.75C17.7501 19.5581 17.3674 20.2948 16.7271 20.7605L17.1214 24.306ZM20.25 11.25H10.25V8.74998C10.25 5.99303 12.493 3.75 15.25 3.75C18.007 3.75 20.25 5.99303 20.25 8.74998V11.25Z" fill="#FA881C"/>
</svg>
