<svg width="42" height="42" viewBox="0 0 42 42" fill="none" xmlns="http://www.w3.org/2000/svg">
<path d="M21 0C9.4208 0 0 9.4208 0 21C0 32.5792 9.4208 42 21 42C32.5792 42 42 32.5792 42 21C42 9.4208 32.5792 0 21 0ZM21 39.375C10.8678 39.375 2.62501 31.1322 2.62501 21C2.62501 10.8678 10.8678 2.62501 21 2.62501C31.1322 2.62501 39.375 10.8678 39.375 21C39.375 31.1322 31.1322 39.375 21 39.375Z" fill="#545477"/>
<path d="M22.3124 7.875H19.6874V21.5434L27.9469 29.8029L29.8029 27.947L22.3124 20.4565V7.875Z" fill="#545477"/>
</svg>
