<svg width="18" height="18" viewBox="0 0 18 18" fill="none" xmlns="http://www.w3.org/2000/svg">
<path d="M14.0003 8.29764L5.99008 0.287559C5.80481 0.102146 5.5575 0 5.29379 0C5.03009 0 4.78277 0.102146 4.59751 0.287559L4.00761 0.87731C3.62376 1.2616 3.62376 1.88618 4.00761 2.26988L10.734 8.99627L4.00014 15.7301C3.81488 15.9155 3.71259 16.1627 3.71259 16.4263C3.71259 16.6901 3.81488 16.9373 4.00014 17.1228L4.59004 17.7124C4.77545 17.8979 5.02262 18 5.28633 18C5.55003 18 5.79735 17.8979 5.98262 17.7124L14.0003 9.69504C14.186 9.50904 14.288 9.26071 14.2874 8.99671C14.288 8.73169 14.186 8.48349 14.0003 8.29764Z" fill="#545477"/>
</svg>
